<svg width="20" height="18" viewBox="0 0 20 18" fill="none" xmlns="http://www.w3.org/2000/svg">
<path d="M17.9426 1.93485C17.4808 1.47996 16.9325 1.11911 16.329 0.872914C15.7255 0.626718 15.0787 0.5 14.4254 0.5C13.7722 0.5 13.1253 0.626718 12.5218 0.872914C11.9183 1.11911 11.37 1.47996 10.9082 1.93485L9.94976 2.87846L8.99134 1.93485C8.05851 1.01644 6.79333 0.500476 5.47411 0.500476C4.15489 0.500476 2.88971 1.01644 1.95688 1.93485C1.02406 2.85326 0.5 4.0989 0.5 5.39773C0.5 6.69657 1.02406 7.9422 1.95688 8.86062L2.9153 9.80423L9.94976 16.73L16.9842 9.80423L17.9426 8.86062C18.4047 8.40594 18.7712 7.8661 19.0212 7.27192C19.2713 6.67775 19.4 6.04089 19.4 5.39773C19.4 4.75457 19.2713 4.11772 19.0212 3.52354C18.7712 2.92937 18.4047 2.38953 17.9426 1.93485Z" stroke="#53515E" stroke-linecap="round" stroke-linejoin="round"/>
</svg>
